<svg xmlns="http://www.w3.org/2000/svg" viewBox="0 0 512 512" role="img" aria-label="Danila Anikin logo">
  <rect width="512" height="512" rx="48" fill="#080806"/>
  <path d="M64 64h384v384H64z" fill="none" stroke="#f7f2e8" stroke-width="18"/>
  <path d="M104 104h304v304H104z" fill="none" stroke="#22d3a6" stroke-width="8"/>
  <path d="M139 344V168h70c29 0 53 8 71 25 19 17 28 38 28 63s-9 46-28 63c-18 17-42 25-71 25h-70zm44-38h26c17 0 30-5 40-14s15-21 15-36-5-27-15-36-23-14-40-14h-26v100z" fill="#f7f2e8"/>
  <path d="M281 344l68-176h44l68 176h-47l-11-32h-65l-11 32h-46zm68-67h43l-21-62-22 62z" fill="#f2c94c"/>
</svg>
